<?xml version="1.0" encoding="UTF-8" standalone="no"?><svg xmlns="http://www.w3.org/2000/svg" xmlns:xlink="http://www.w3.org/1999/xlink" contentScriptType="application/ecmascript" contentStyleType="text/css" height="639px" preserveAspectRatio="none" style="width:1156px;height:639px;" version="1.1" viewBox="0 0 1156 639" width="1156px" zoomAndPan="magnify"><defs/><g><!--MD5=[832c79d39af05e22739be74b00bb2e3a]
entity _bot--><rect fill="#F8F8F8" height="34.4844" rx="3" ry="3" style="stroke: #000000; stroke-width: 0.5;" width="39" x="45.3322" y="235.78"/><text fill="#000000" font-family="Tahoma, sans-serif" font-size="12" lengthAdjust="spacingAndGlyphs" textLength="19" x="55.3322" y="257.7859">bot</text><!--MD5=[6204e19d24b942ee2cc5b28d3c83d53a]
entity _burn_filter--><rect fill="#F8F8F8" height="34.4844" rx="3" ry="3" style="stroke: #000000; stroke-width: 0.5;" width="73" x="335.332" y="454.78"/><text fill="#000000" font-family="Tahoma, sans-serif" font-size="12" lengthAdjust="spacingAndGlyphs" textLength="53" x="345.332" y="476.7859">burn.filter</text><ellipse cx="596.0807" cy="286.022" fill="#F8F8F8" rx="27.7487" ry="13.242" style="stroke: #383838; stroke-width: 0.5;"/><text fill="#000000" font-family="Tahoma, sans-serif" font-size="12" lengthAdjust="spacingAndGlyphs" textLength="35" x="578.5807" y="289.7642">cache</text><!--MD5=[ed217b44060e8be12eda7aa7a28afb47]
entity _constants--><rect fill="#F8F8F8" height="34.4844" rx="3" ry="3" style="stroke: #000000; stroke-width: 0.5;" width="78" x="972.332" y="183.78"/><text fill="#000000" font-family="Tahoma, sans-serif" font-size="12" lengthAdjust="spacingAndGlyphs" textLength="58" x="982.332" y="205.7859">constants</text><!--MD5=[aab36995fae4684f4a182ff8e93d368d]
entity _default_transaction_executor--><rect fill="#F8F8F8" height="34.4844" rx="3" ry="3" style="stroke: #000000; stroke-width: 0.5;" width="184" x="279.832" y="124.78"/><text fill="#000000" font-family="Tahoma, sans-serif" font-size="12" lengthAdjust="spacingAndGlyphs" textLength="164" x="289.832" y="146.7859">default-transaction-executor</text><ellipse cx="190.4594" cy="411.022" fill="#F8F8F8" rx="25.6274" ry="13.242" style="stroke: #383838; stroke-width: 0.5;"/><text fill="#000000" font-family="Tahoma, sans-serif" font-size="12" lengthAdjust="spacingAndGlyphs" textLength="32" x="174.4594" y="414.7642">filters</text><ellipse cx="904.0305" cy="322.022" fill="#F8F8F8" rx="32.6985" ry="13.242" style="stroke: #383838; stroke-width: 0.5;"/><text fill="#000000" font-family="Tahoma, sans-serif" font-size="12" lengthAdjust="spacingAndGlyphs" textLength="42" x="883.0305" y="325.7642">helpers</text><ellipse cx="65.0809" cy="163.022" fill="#F8F8F8" rx="27.7487" ry="13.242" style="stroke: #383838; stroke-width: 0.5;"/><text fill="#000000" font-family="Tahoma, sans-serif" font-size="12" font-weight="bold" lengthAdjust="spacingAndGlyphs" textLength="35" x="47.5809" y="166.7642">index</text><!--MD5=[fff7b8361a565940930d6502cd840dc6]
entity _jito_rpc_transaction_executor--><rect fill="#F8F8F8" height="34.4844" rx="3" ry="3" style="stroke: #000000; stroke-width: 0.5;" width="187" x="278.332" y="38.78"/><text fill="#000000" font-family="Tahoma, sans-serif" font-size="12" lengthAdjust="spacingAndGlyphs" textLength="167" x="288.332" y="60.7859">jito-rpc-transaction-executor</text><ellipse cx="1011.2356" cy="283.022" fill="#F8F8F8" rx="33.4056" ry="13.242" style="stroke: #383838; stroke-width: 0.5;"/><text fill="#000000" font-family="Tahoma, sans-serif" font-size="12" lengthAdjust="spacingAndGlyphs" textLength="43" x="989.7356" y="286.7642">liquidity</text><ellipse cx="64.9804" cy="206.022" fill="#F8F8F8" rx="37.6482" ry="13.242" style="stroke: #383838; stroke-width: 0.5;"/><text fill="#000000" font-family="Tahoma, sans-serif" font-size="12" lengthAdjust="spacingAndGlyphs" textLength="49" x="40.4804" y="209.7642">listeners</text><!--MD5=[eaeb51a84cfea50f3094377d555e20ae]
entity _listeners--><rect fill="#F8F8F8" height="34.4844" rx="3" ry="3" style="stroke: #000000; stroke-width: 0.5;" width="69" x="155.832" y="190.78"/><text fill="#000000" font-family="Tahoma, sans-serif" font-size="12" lengthAdjust="spacingAndGlyphs" textLength="49" x="165.832" y="212.7859">listeners</text><ellipse cx="1115.7858" cy="233.022" fill="#F8F8F8" rx="28.4558" ry="13.242" style="stroke: #383838; stroke-width: 0.5;"/><text fill="#000000" font-family="Tahoma, sans-serif" font-size="12" lengthAdjust="spacingAndGlyphs" textLength="36" x="1097.7858" y="236.7642">logger</text><!--MD5=[d6cba514032e93d6bdfdb6e117ec53af]
entity _market--><rect fill="#F8F8F8" height="34.4844" rx="3" ry="3" style="stroke: #000000; stroke-width: 0.5;" width="59" x="1086.33" y="277.78"/><text fill="#000000" font-family="Tahoma, sans-serif" font-size="12" lengthAdjust="spacingAndGlyphs" textLength="39" x="1096.33" y="299.7859">market</text><!--MD5=[bef3f0165519a2b81f6ba143c6d5dd73]
entity _market_cache--><rect fill="#F8F8F8" height="34.4844" rx="3" ry="3" style="stroke: #000000; stroke-width: 0.5;" width="97" x="733.332" y="253.78"/><text fill="#000000" font-family="Tahoma, sans-serif" font-size="12" lengthAdjust="spacingAndGlyphs" textLength="77" x="743.332" y="275.7859">market.cache</text><!--MD5=[746fb14841dbeb46a132a7725360f37d]
entity _mutable_filter--><rect fill="#F8F8F8" height="34.4844" rx="3" ry="3" style="stroke: #000000; stroke-width: 0.5;" width="94" x="734.832" y="492.78"/><text fill="#000000" font-family="Tahoma, sans-serif" font-size="12" lengthAdjust="spacingAndGlyphs" textLength="74" x="744.832" y="514.7859">mutable.filter</text><!--MD5=[bfa4ea6de71d6d771225c4e3e2be0909]
entity _pool_filters--><rect fill="#F8F8F8" height="34.4844" rx="3" ry="3" style="stroke: #000000; stroke-width: 0.5;" width="83" x="554.332" y="434.78"/><text fill="#000000" font-family="Tahoma, sans-serif" font-size="12" lengthAdjust="spacingAndGlyphs" textLength="63" x="564.332" y="456.7859">pool-filters</text><!--MD5=[985267d3cacb26e3889ec01dc2c3120e]
entity _pool_size_filter--><rect fill="#F8F8F8" height="34.4844" rx="3" ry="3" style="stroke: #000000; stroke-width: 0.5;" width="103" x="730.332" y="355.78"/><text fill="#000000" font-family="Tahoma, sans-serif" font-size="12" lengthAdjust="spacingAndGlyphs" textLength="83" x="740.332" y="377.7859">pool-size.filter</text><!--MD5=[6bf299ad3fbc6d67cdcc488077ab346f]
entity _pool_cache--><rect fill="#F8F8F8" height="34.4844" rx="3" ry="3" style="stroke: #000000; stroke-width: 0.5;" width="84" x="739.832" y="304.78"/><text fill="#000000" font-family="Tahoma, sans-serif" font-size="12" lengthAdjust="spacingAndGlyphs" textLength="64" x="749.832" y="326.7859">pool.cache</text><ellipse cx="1011.5138" cy="361.022" fill="#F8F8F8" rx="41.1838" ry="13.242" style="stroke: #383838; stroke-width: 0.5;"/><text fill="#000000" font-family="Tahoma, sans-serif" font-size="12" lengthAdjust="spacingAndGlyphs" textLength="54" x="984.5138" y="364.7642">promises</text><!--MD5=[fa43a7b17fb0c0b83569f281bb3d63e8]
entity _renounced_filter--><rect fill="#F8F8F8" height="34.4844" rx="3" ry="3" style="stroke: #000000; stroke-width: 0.5;" width="109" x="727.332" y="406.78"/><text fill="#000000" font-family="Tahoma, sans-serif" font-size="12" lengthAdjust="spacingAndGlyphs" textLength="89" x="737.332" y="428.7859">renounced.filter</text><!--MD5=[a278f7af40e16ba64b12dfc6b6848d29]
entity _snipe_list_cache--><rect fill="#F8F8F8" height="34.4844" rx="3" ry="3" style="stroke: #000000; stroke-width: 0.5;" width="111" x="726.332" y="202.78"/><text fill="#000000" font-family="Tahoma, sans-serif" font-size="12" lengthAdjust="spacingAndGlyphs" textLength="91" x="736.332" y="224.7859">snipe-list.cache</text><ellipse cx="1011.4574" cy="404.022" fill="#F8F8F8" rx="25.6274" ry="13.242" style="stroke: #383838; stroke-width: 0.5;"/><text fill="#000000" font-family="Tahoma, sans-serif" font-size="12" lengthAdjust="spacingAndGlyphs" textLength="32" x="995.4574" y="407.7642">token</text><!--MD5=[fb72455682138890926fd7910d6555f9]
entity _transaction_executor_interface--><rect fill="#F8F8F8" height="34.4844" rx="3" ry="3" style="stroke: #000000; stroke-width: 0.5;" width="193" x="499.332" y="81.78"/><text fill="#000000" font-family="Tahoma, sans-serif" font-size="12" lengthAdjust="spacingAndGlyphs" textLength="173" x="509.332" y="103.7859">transaction-executor.interface</text><ellipse cx="190.2437" cy="126.022" fill="#F8F8F8" rx="53.9117" ry="13.242" style="stroke: #383838; stroke-width: 0.5;"/><text fill="#000000" font-family="Tahoma, sans-serif" font-size="12" lengthAdjust="spacingAndGlyphs" textLength="72" x="154.2437" y="129.7642">transactions</text><ellipse cx="1011.1645" cy="447.022" fill="#F8F8F8" rx="26.3345" ry="13.242" style="stroke: #383838; stroke-width: 0.5;"/><text fill="#000000" font-family="Tahoma, sans-serif" font-size="12" lengthAdjust="spacingAndGlyphs" textLength="33" x="994.6645" y="450.7642">wallet</text><!--MD5=[a4973d6f1c73233b0e46e25b592bf470]
entity _warp_transaction_executor--><rect fill="#F8F8F8" height="34.4844" rx="3" ry="3" style="stroke: #000000; stroke-width: 0.5;" width="172" x="285.832" y="175.78"/><text fill="#000000" font-family="Tahoma, sans-serif" font-size="12" lengthAdjust="spacingAndGlyphs" textLength="152" x="295.832" y="197.7859">warp-transaction-executor</text><!--MD5=[5be2e5a8662bf80edee7db3d3ee48ef7]
link _bot to cache--><path d="M84.348,269.194 C97.7496,279.925 116.861,292.989 136.332,298.78 C292.493,345.22 491.891,309.129 565.68,292.761 " fill="none" id="_bot-&gt;cache" style="stroke: #000000; stroke-width: 0.5;"/><polygon fill="#000000" points="570.773,291.618,561.1152,289.6875,565.8945,292.7137,562.8683,297.493,570.773,291.618" style="stroke: #000000; stroke-width: 0.5;"/><!--MD5=[dddd65c345f5c2361740e1fc31661a00]
link _bot to filters--><path d="M79.2839,269.989 C103.2376,300.634 152.97,364.26 176.483,394.341 " fill="none" id="_bot-&gt;filters" style="stroke: #000000; stroke-width: 0.5;"/><polygon fill="#000000" points="179.756,398.528,177.3645,388.9739,176.6766,394.5888,171.0617,393.9009,179.756,398.528" style="stroke: #000000; stroke-width: 0.5;"/><!--MD5=[5a5f1bf67df8d189f37ad89185585db5]
link _bot to helpers--><path d="M69.2914,269.92 C76.788,303.808 97.1028,380.605 136.332,432.78 C211.412,532.6342 245.9,587.7796 370.832,587.7796 C370.832,587.7796 370.832,587.7796 596.832,587.7796 C704.605,587.7796 755.853,627.3221 837.332,556.7796 C870.698,527.892 893.148,390.295 900.342,340.131 " fill="none" id="_bot-&gt;helpers" style="stroke: #000000; stroke-width: 0.5;"/><polygon fill="#000000" points="901.067,335.006,895.8439,343.3558,900.3655,339.9565,903.7647,344.4782,901.067,335.006" style="stroke: #000000; stroke-width: 0.5;"/><!--MD5=[387017912c7861f1b66e059ab6c6eb40]
link _bot to _jito_rpc_transaction_executor--><path d="M84.6318,243.451 C91.0692,239.426 97.787,234.161 102.3322,227.78 C135.486,181.235 94.6187,142.838 136.332,103.78 C146.751,94.024 213.526,80.915 273.168,70.861 " fill="none" id="_bot-&gt;_jito_rpc_transaction_executor" style="stroke: #000000; stroke-width: 0.5;"/><polygon fill="#000000" points="278.18,70.021,268.6423,67.5649,273.2489,70.8481,269.9657,75.4547,278.18,70.021" style="stroke: #000000; stroke-width: 0.5;"/><!--MD5=[86ae37de26ceb834b6dcbf9f2a5fb70f]
link _bot to transactions--><path d="M84.533,241.656 C90.5323,237.659 96.9985,232.871 102.3322,227.78 C120.464,210.472 120.221,201.983 136.332,182.78 C148.193,168.643 162.481,153.368 173.232,142.192 " fill="none" id="_bot-&gt;transactions" style="stroke: #000000; stroke-width: 0.5;"/><polygon fill="#000000" points="176.734,138.567,167.6044,142.2617,173.2604,142.1634,173.3587,147.8194,176.734,138.567" style="stroke: #000000; stroke-width: 0.5;"/><!--MD5=[76ee2883bc7a5a8832ad84b8f3c9e879]
link _bot to _warp_transaction_executor--><path d="M84.5335,252.064 C117.253,250.531 186.874,246.01 244.332,233.78 C270.157,228.282 298.154,219.514 321.228,211.495 " fill="none" id="_bot-&gt;_warp_transaction_executor" style="stroke: #000000; stroke-width: 0.5;"/><polygon fill="#000000" points="326.075,209.796,316.2587,208.9953,321.356,211.4485,318.9028,216.5457,326.075,209.796" style="stroke: #000000; stroke-width: 0.5;"/><!--MD5=[5346aaec2b299a85c189b682701002ef]
link _burn_filter to helpers--><path d="M408.52,482.996 C505.166,512.4098 769.269,586.1268 837.332,535.7796 C869.59,511.9176 892.432,387.262 900.054,339.985 " fill="none" id="_burn_filter-&gt;helpers" style="stroke: #000000; stroke-width: 0.5;"/><polygon fill="#000000" points="900.868,334.874,895.5032,343.1335,900.0822,339.8119,903.4038,344.3908,900.868,334.874" style="stroke: #000000; stroke-width: 0.5;"/><!--MD5=[49e2190ce859eed937eba3cc9ebf9012]
link _burn_filter to _pool_filters--><path d="M408.5,473.113 C446.661,471.461 507.312,466.137 548.991,460.875 " fill="none" id="_burn_filter-&gt;_pool_filters" style="stroke: #000000; stroke-width: 0.5;"/><polygon fill="#000000" points="553.977,460.234,544.5398,457.4163,549.018,460.8726,545.5616,465.3508,553.977,460.234" style="stroke: #000000; stroke-width: 0.5;"/><!--MD5=[6a58a53e8b07db036d0707769beab321]
link _pool_filters to _burn_filter--><path d="M553.977,450.09 C514.072,451.846 453.677,457.286 413.751,462.72 " fill="none" id="_pool_filters-&gt;_burn_filter" style="stroke: #000000; stroke-width: 0.5;"/><polygon fill="#000000" points="408.5,463.451,417.9658,466.1709,413.4522,462.7611,416.862,458.2474,408.5,463.451" style="stroke: #000000; stroke-width: 0.5;"/><!--MD5=[5eea854bbc6c9c8fdf039ef7fb025b07]
link cache to _market_cache--><path d="M623.195,283.63 C650.472,281.407 693.812,277.874 728.15,275.074 " fill="none" id="cache-&gt;_market_cache" style="stroke: #000000; stroke-width: 0.5;"/><polygon fill="#000000" points="733.148,274.667,723.8531,271.4106,728.1645,275.0728,724.5023,279.3842,733.148,274.667" style="stroke: #000000; stroke-width: 0.5;"/><!--MD5=[ead6e276881e7b5620757c6848574775]
link cache to _pool_cache--><path d="M621.647,290.635 C650.444,296.269 698.55,305.681 734.356,312.687 " fill="none" id="cache-&gt;_pool_cache" style="stroke: #000000; stroke-width: 0.5;"/><polygon fill="#000000" points="739.546,313.702,731.4814,308.0485,734.639,312.742,729.9455,315.8996,739.546,313.702" style="stroke: #000000; stroke-width: 0.5;"/><!--MD5=[b538f3b3cd7395362db056e8debca100]
link cache to _snipe_list_cache--><path d="M618.299,278.079 C645.064,268.479 691.731,251.74 728.214,238.654 " fill="none" id="cache-&gt;_snipe_list_cache" style="stroke: #000000; stroke-width: 0.5;"/><polygon fill="#000000" points="733.063,236.914,723.2409,236.1878,728.3567,238.6023,725.9422,243.718,733.063,236.914" style="stroke: #000000; stroke-width: 0.5;"/><!--MD5=[93b66353fcec224bde6f639c54806b8d]
link _constants to logger--><path d="M1050.5,212.695 C1062.54,216.455 1075.62,220.538 1086.82,224.034 " fill="none" id="_constants-&gt;logger" style="stroke: #000000; stroke-width: 0.5;"/><polygon fill="#000000" points="1091.82,225.596,1084.4156,219.1018,1087.046,224.1099,1082.0378,226.7403,1091.82,225.596" style="stroke: #000000; stroke-width: 0.5;"/><!--MD5=[3fb81af90adc9ee8cefd7542ff7d3858]
link _default_transaction_executor to helpers--><path d="M464.032,136.269 C582,130.977 779.263,128.938 837.332,169.78 C882.213,201.346 896.583,270.391 900.988,303.44 " fill="none" id="_default_transaction_executor-&gt;helpers" style="stroke: #000000; stroke-width: 0.5;"/><polygon fill="#000000" points="901.656,308.801,904.5091,299.3745,901.036,303.8396,896.5709,300.3665,901.656,308.801" style="stroke: #000000; stroke-width: 0.5;"/><!--MD5=[71336628bf0c6717296a33eff4b6793c]
link _default_transaction_executor to _transaction_executor_interface--><path d="M460.891,124.723 C474.368,122.113 488.317,119.411 501.895,116.781 " fill="none" id="_default_transaction_executor-&gt;_transaction_executor_interface" style="stroke: #000000; stroke-width: 0.5;"/><polygon fill="#000000" points="506.88,115.815,497.2833,113.6007,501.9714,116.7664,498.8056,121.4545,506.88,115.815" style="stroke: #000000; stroke-width: 0.5;"/><!--MD5=[ea60e11b5585f12e4a9377a1662d365e]
link filters to _burn_filter--><path d="M211.666,418.211 C229.261,424.597 255.411,433.981 278.332,441.78 C295.279,447.546 314.056,453.682 330.239,458.892 " fill="none" id="filters-&gt;_burn_filter" style="stroke: #000000; stroke-width: 0.5;"/><polygon fill="#000000" points="335.174,460.478,327.8298,453.9158,330.4139,458.948,325.3817,461.532,335.174,460.478" style="stroke: #000000; stroke-width: 0.5;"/><!--MD5=[25f5962c41a60d26474288849ed08bcb]
link filters to _mutable_filter--><path d="M199.097,423.228 C212.432,443.299 241.81,482.138 278.332,497.78 C431.613,563.425 636.03,537.7591 729.849,520.5204 " fill="none" id="filters-&gt;_mutable_filter" style="stroke: #000000; stroke-width: 0.5;"/><polygon fill="#000000" points="734.778,519.6038,725.1983,517.317,729.8623,520.5181,726.6612,525.1821,734.778,519.6038" style="stroke: #000000; stroke-width: 0.5;"/><!--MD5=[7f7d56bce9a0ec80afb5b63929085efe]
link filters to _pool_filters--><path d="M215.664,413.252 C281.401,419.932 463.369,438.422 549.07,447.13 " fill="none" id="filters-&gt;_pool_filters" style="stroke: #000000; stroke-width: 0.5;"/><polygon fill="#000000" points="554.076,447.638,545.5267,442.7482,549.1016,447.1323,544.7176,450.7072,554.076,447.638" style="stroke: #000000; stroke-width: 0.5;"/><!--MD5=[231371a3454195c022e920f9ce9f4df0]
link filters to _pool_size_filter--><path d="M215.297,407.641 C232.75,405.449 256.973,402.601 278.332,400.78 C440.248,386.975 632.121,378.45 724.963,374.819 " fill="none" id="filters-&gt;_pool_size_filter" style="stroke: #000000; stroke-width: 0.5;"/><polygon fill="#000000" points="730.122,374.619,720.9734,370.9718,725.1258,374.8133,721.2842,378.9657,730.122,374.619" style="stroke: #000000; stroke-width: 0.5;"/><!--MD5=[00dca15d24f16a2ce01e0cc86c242bc3]
link filters to _renounced_filter--><path d="M215.895,411.169 C263.848,411.943 373.292,413.773 465.332,415.78 C554.844,417.731 658.63,420.451 721.997,422.163 " fill="none" id="filters-&gt;_renounced_filter" style="stroke: #000000; stroke-width: 0.5;"/><polygon fill="#000000" points="727.244,422.305,718.3559,418.0622,722.2458,422.1693,718.1388,426.0593,727.244,422.305" style="stroke: #000000; stroke-width: 0.5;"/><!--MD5=[4307545297eb8af2f285efa0866c0150]
link helpers to _constants--><path d="M912.237,309.096 C923.384,290.623 945.801,255.797 970.332,230.78 C973.477,227.572 976.985,224.436 980.581,221.472 " fill="none" id="helpers-&gt;_constants" style="stroke: #000000; stroke-width: 0.5;"/><polygon fill="#000000" points="984.826,218.079,975.2982,220.5731,980.9201,221.2006,980.2927,226.8225,984.826,218.079" style="stroke: #000000; stroke-width: 0.5;"/><!--MD5=[d099623349dce23eb18071f2cd5db9bc]
link helpers to liquidity--><path d="M928.246,313.124 C943.87,307.349 964.529,299.712 981.212,293.544 " fill="none" id="helpers-&gt;liquidity" style="stroke: #000000; stroke-width: 0.5;"/><polygon fill="#000000" points="986.252,291.681,976.4235,291.0481,981.5619,293.4139,979.1961,298.5523,986.252,291.681" style="stroke: #000000; stroke-width: 0.5;"/><!--MD5=[39b1f538c6e827f9ffa196ae49b1fbae]
link helpers to logger--><path d="M914.751,309.294 C926.492,295.42 947.369,273.439 970.332,261.78 C1005.918,243.711 1051.78,236.895 1082.19,234.326 " fill="none" id="helpers-&gt;logger" style="stroke: #000000; stroke-width: 0.5;"/><polygon fill="#000000" points="1087.31,233.922,1078.0189,230.6548,1082.326,234.322,1078.6588,238.6291,1087.31,233.922" style="stroke: #000000; stroke-width: 0.5;"/><!--MD5=[d0e5da10fcf47f04525e943d838d3f93]
link helpers to _market--><path d="M935.391,318.653 C965.255,315.505 1011.98,310.33 1052.33,304.78 C1061.7,303.491 1071.83,301.938 1081.16,300.445 " fill="none" id="helpers-&gt;_market" style="stroke: #000000; stroke-width: 0.5;"/><polygon fill="#000000" points="1086.25,299.624,1076.7261,297.1151,1081.3144,300.4238,1078.0057,305.0121,1086.25,299.624" style="stroke: #000000; stroke-width: 0.5;"/><!--MD5=[c8aabbadfc424602d78cd612452ca461]
link helpers to promises--><path d="M928.246,330.435 C943.21,335.967 962.792,343.205 979.077,349.226 " fill="none" id="helpers-&gt;promises" style="stroke: #000000; stroke-width: 0.5;"/><polygon fill="#000000" points="984.016,351.051,976.9601,344.1797,979.3259,349.3181,974.1875,351.6839,984.016,351.051" style="stroke: #000000; stroke-width: 0.5;"/><!--MD5=[dc14893f62899af9f25d1363fc7b7683]
link helpers to token--><path d="M916.075,334.042 C928.508,347.153 949.542,368.042 970.332,382.78 C975.531,386.465 981.459,389.926 987.13,392.935 " fill="none" id="helpers-&gt;token" style="stroke: #000000; stroke-width: 0.5;"/><polygon fill="#000000" points="991.811,395.35,985.6467,387.6688,987.3675,393.0575,981.9787,394.7784,991.811,395.35" style="stroke: #000000; stroke-width: 0.5;"/><!--MD5=[e9c006e30dc97f14792d3d6c9621e59a]
link helpers to wallet--><path d="M910.308,334.812 C919.816,356.146 941.187,398.84 970.332,425.78 C974.832,429.939 980.311,433.515 985.751,436.477 " fill="none" id="helpers-&gt;wallet" style="stroke: #000000; stroke-width: 0.5;"/><polygon fill="#000000" points="990.291,438.82,984.1277,431.138,985.8478,436.527,980.4588,438.2471,990.291,438.82" style="stroke: #000000; stroke-width: 0.5;"/><!--MD5=[90bf256c2d258e1bb18e8aca654f30ac]
link <b>index</b> to _bot--><path d="M41.167,169.721 C29.714,174.406 17.0228,181.868 10.3322,193.28 C4.4875,203.248 4.6928,209.194 10.3322,219.28 C16.8296,230.9 29.1922,238.983 40.5024,244.294 " fill="none" id="&lt;b&gt;index&lt;/b&gt;-&gt;_bot" style="stroke: #000000; stroke-width: 1.0;"/><polygon fill="#000000" points="45.2651,246.402,38.6552,239.1007,40.6932,244.3777,35.4163,246.4157,45.2651,246.402" style="stroke: #000000; stroke-width: 1.0;"/><!--MD5=[b14cc2ecfdd9ea59be504c2aeab9bbe0]
link <b>index</b> to cache--><path d="M84.7118,172.125 C90.723,175.612 97.1511,179.921 102.3322,184.78 C121.667,202.912 113.577,220.184 136.332,233.78 C277.199,317.944 486.179,300.714 564.088,290.465 " fill="none" id="&lt;b&gt;index&lt;/b&gt;-&gt;cache" style="stroke: #000000; stroke-width: 1.0;"/><polygon fill="#000000" points="569.468,289.74,560.0148,286.9765,564.5127,290.4071,561.0821,294.905,569.468,289.74" style="stroke: #000000; stroke-width: 1.0;"/><!--MD5=[c155cdb9ea3fd4d1c36a40ad98955881]
link <b>index</b> to helpers--><path d="M69.6911,149.845 C77.7092,125.417 98.6381,72.719 136.332,47.78 C224.215,-10.365 265.455,12.78 370.832,12.78 C370.832,12.78 370.832,12.78 596.832,12.78 C709.621,12.78 761.447,10.337 837.332,93.78 C893.135,155.14 901.676,261.057 902.78,303.455 " fill="none" id="&lt;b&gt;index&lt;/b&gt;-&gt;helpers" style="stroke: #000000; stroke-width: 1.0;"/><polygon fill="#000000" points="902.884,308.538,906.698,299.4576,902.7811,303.5391,898.6997,299.6222,902.884,308.538" style="stroke: #000000; stroke-width: 1.0;"/><!--MD5=[8d518b9a9610bba87333bff5cc7732a2]
link <b>index</b> to _jito_rpc_transaction_executor--><path d="M71.6629,149.99 C81.6553,129.755 104.1348,90.901 136.332,73.78 C177.641,51.813 228.951,45.904 273.032,46.08 " fill="none" id="&lt;b&gt;index&lt;/b&gt;-&gt;_jito_rpc_transaction_executor" style="stroke: #000000; stroke-width: 1.0;"/><polygon fill="#000000" points="278.096,46.126,269.1329,42.0439,273.0962,46.0803,269.0598,50.0436,278.096,46.126" style="stroke: #000000; stroke-width: 1.0;"/><!--MD5=[aa44ff2ec45ee07e0ae77442d7aef9aa]
link <b>index</b> to listeners--><path d="M64.8322,175.86 C64.8322,179.714 64.8322,183.568 64.8322,187.422 " fill="none" id="&lt;b&gt;index&lt;/b&gt;-&gt;listeners" style="stroke: #000000; stroke-width: 1.0;"/><polygon fill="#000000" points="64.8322,192.678,68.8322,183.678,64.8322,187.678,60.8322,183.678,64.8322,192.678" style="stroke: #000000; stroke-width: 1.0;"/><!--MD5=[de9d5e864d5f68724fc06b5c24cb14ff]
link <b>index</b> to transactions--><path d="M88.484,155.993 C105.8901,150.778 130.337,143.454 150.802,137.323 " fill="none" id="&lt;b&gt;index&lt;/b&gt;-&gt;transactions" style="stroke: #000000; stroke-width: 1.0;"/><polygon fill="#000000" points="155.641,135.873,145.8715,134.6254,150.8515,137.3086,148.1684,142.2886,155.641,135.873" style="stroke: #000000; stroke-width: 1.0;"/><!--MD5=[782b3e4069c7d37e6939248a28e67842]
link <b>index</b> to _warp_transaction_executor--><path d="M91.8363,165.337 C133.184,169.404 215.851,177.536 280.517,183.896 " fill="none" id="&lt;b&gt;index&lt;/b&gt;-&gt;_warp_transaction_executor" style="stroke: #000000; stroke-width: 1.0;"/><polygon fill="#000000" points="285.534,184.39,276.9692,179.5275,280.5581,183.9001,276.1854,187.489,285.534,184.39" style="stroke: #000000; stroke-width: 1.0;"/><!--MD5=[2405e2f50225887c1ef741e45195c15b]
link _jito_rpc_transaction_executor to helpers--><path d="M465.479,43.254 C572.041,34.608 744.236,39.375 837.332,141.78 C880.649,189.428 895.911,267.981 900.777,303.423 " fill="none" id="_jito_rpc_transaction_executor-&gt;helpers" style="stroke: #000000; stroke-width: 0.5;"/><polygon fill="#000000" points="901.471,308.73,904.27,299.2872,900.8225,303.7722,896.3375,300.3248,901.471,308.73" style="stroke: #000000; stroke-width: 0.5;"/><!--MD5=[2e43c5bebc734b24df8e48e4253460bd]
link _jito_rpc_transaction_executor to _transaction_executor_interface--><path d="M460.891,72.836 C474.368,75.447 488.317,78.148 501.895,80.778 " fill="none" id="_jito_rpc_transaction_executor-&gt;_transaction_executor_interface" style="stroke: #000000; stroke-width: 0.5;"/><polygon fill="#000000" points="506.88,81.744,498.8056,76.1045,501.9714,80.7926,497.2833,83.9583,506.88,81.744" style="stroke: #000000; stroke-width: 0.5;"/><!--MD5=[bf3992458f7c91ce6aa488c632a52546]
link liquidity to _market--><path d="M1043.64,286.445 C1055.49,287.832 1069.02,289.417 1081.09,290.829 " fill="none" id="liquidity-&gt;_market" style="stroke: #000000; stroke-width: 0.5;"/><polygon fill="#000000" points="1086.16,291.422,1077.6763,286.4193,1081.1928,290.8504,1076.7617,294.3669,1086.16,291.422" style="stroke: #000000; stroke-width: 0.5;"/><!--MD5=[730e59751f29eb13fd92c8ed4a14c1cf]
link listeners to _listeners--><path d="M102.5519,206.374 C117.628,206.618 135.1,206.901 150.398,207.149 " fill="none" id="listeners-&gt;_listeners" style="stroke: #000000; stroke-width: 0.5;"/><polygon fill="#000000" points="155.496,207.232,146.5623,203.0859,150.4967,207.1506,146.432,211.0849,155.496,207.232" style="stroke: #000000; stroke-width: 0.5;"/><!--MD5=[85a6477d0a06ff4a9c8de77d80b70573]
link _market_cache to helpers--><path d="M823.124,287.904 C840.649,295.352 860.696,303.872 876.302,310.504 " fill="none" id="_market_cache-&gt;helpers" style="stroke: #000000; stroke-width: 0.5;"/><polygon fill="#000000" points="880.995,312.499,874.2767,305.2973,876.3934,310.5432,871.1475,312.6599,880.995,312.499" style="stroke: #000000; stroke-width: 0.5;"/><!--MD5=[e3149c51f61aadf19731385ff75c7fa8]
link _mutable_filter to helpers--><path d="M821.873,492.621 C827.542,488.96 832.937,484.688 837.332,479.78 C874.783,437.956 892.642,371.732 899.421,339.959 " fill="none" id="_mutable_filter-&gt;helpers" style="stroke: #000000; stroke-width: 0.5;"/><polygon fill="#000000" points="900.488,334.802,894.748,342.8053,899.4753,339.6984,902.5822,344.4256,900.488,334.802" style="stroke: #000000; stroke-width: 0.5;"/><!--MD5=[c39d572c3ad3502d8faa746d294704d1]
link _mutable_filter to _pool_filters--><path d="M744.167,492.702 C714.976,482.01 673.959,468.945 642.612,460.283 " fill="none" id="_mutable_filter-&gt;_pool_filters" style="stroke: #000000; stroke-width: 0.5;"/><polygon fill="#000000" points="637.668,458.932,645.2945,465.1639,642.491,460.2506,647.4043,457.4471,637.668,458.932" style="stroke: #000000; stroke-width: 0.5;"/><!--MD5=[8e797055163678683b8b6a6673bb0179]
link _pool_filters to _mutable_filter--><path d="M635.405,468.929 C662.799,478.739 699.866,490.572 729.721,499.1073 " fill="none" id="_pool_filters-&gt;_mutable_filter" style="stroke: #000000; stroke-width: 0.5;"/><polygon fill="#000000" points="734.827,500.5544,727.258,494.2528,730.0163,499.1916,725.0775,501.9499,734.827,500.5544" style="stroke: #000000; stroke-width: 0.5;"/><!--MD5=[11442484371ef2c5b5b2fb3dab32bfd0]
link _pool_filters to helpers--><path d="M637.339,463.356 C688.153,475.37 776.043,487.615 837.332,449.78 C876.726,425.461 893.418,369.201 899.626,340.041 " fill="none" id="_pool_filters-&gt;helpers" style="stroke: #000000; stroke-width: 0.5;"/><polygon fill="#000000" points="900.666,334.926,894.9539,342.9492,899.6703,339.8259,902.7937,344.5423,900.666,334.926" style="stroke: #000000; stroke-width: 0.5;"/><!--MD5=[d2c5c034ab3a62911e321ba37c22bec2]
link _pool_filters to _pool_size_filter--><path d="M637.668,439.331 C670.43,426.578 715.886,406.962 746.724,392.21 " fill="none" id="_pool_filters-&gt;_pool_size_filter" style="stroke: #000000; stroke-width: 0.5;"/><polygon fill="#000000" points="751.543,389.886,741.6989,390.1911,747.039,392.0573,745.1729,397.3974,751.543,389.886" style="stroke: #000000; stroke-width: 0.5;"/><!--MD5=[e685d2c069f8b6673b9e13751ffcd64c]
link _pool_size_filter to _pool_filters--><path d="M729.984,388.501 C697.876,401.218 657.344,418.89 629.482,432.46 " fill="none" id="_pool_size_filter-&gt;_pool_filters" style="stroke: #000000; stroke-width: 0.5;"/><polygon fill="#000000" points="624.778,434.772,634.6195,434.3914,629.2652,432.5663,631.0903,427.2119,624.778,434.772" style="stroke: #000000; stroke-width: 0.5;"/><!--MD5=[f1b74ec719d8680d19e84cbecc09045b]
link _pool_filters to _renounced_filter--><path d="M637.668,450.65 C662.486,447.868 694.588,443.167 722.102,438.354 " fill="none" id="_pool_filters-&gt;_renounced_filter" style="stroke: #000000; stroke-width: 0.5;"/><polygon fill="#000000" points="727.183,437.454,717.6229,435.0867,722.2598,438.3269,719.0196,442.9638,727.183,437.454" style="stroke: #000000; stroke-width: 0.5;"/><!--MD5=[376231eeeca35413ef6fc3f3c287f12e]
link _renounced_filter to _pool_filters--><path d="M727.183,425.745 C700.398,429.005 668.33,433.975 642.704,438.868 " fill="none" id="_renounced_filter-&gt;_pool_filters" style="stroke: #000000; stroke-width: 0.5;"/><polygon fill="#000000" points="637.668,439.845,647.2653,442.0566,642.5764,438.8922,645.7408,434.2032,637.668,439.845" style="stroke: #000000; stroke-width: 0.5;"/><!--MD5=[e5e37e0f637e6f118006ff8e0dd84db9]
link _pool_size_filter to helpers--><path d="M823.124,355.655 C840.649,348.208 860.696,339.687 876.302,333.055 " fill="none" id="_pool_size_filter-&gt;helpers" style="stroke: #000000; stroke-width: 0.5;"/><polygon fill="#000000" points="880.995,331.061,871.1475,330.9001,876.3934,333.0168,874.2767,338.2627,880.995,331.061" style="stroke: #000000; stroke-width: 0.5;"/><!--MD5=[b214cc5910e9bc1be7510315179a46d4]
link _pool_cache to helpers--><path d="M824.129,321.78 C837.775,321.78 852.856,321.78 866.134,321.78 " fill="none" id="_pool_cache-&gt;helpers" style="stroke: #000000; stroke-width: 0.5;"/><polygon fill="#000000" points="871.318,321.78,862.318,317.78,866.318,321.78,862.318,325.78,871.318,321.78" style="stroke: #000000; stroke-width: 0.5;"/><!--MD5=[bd84ea0df073e2fe758e4b7dfacad50e]
link _renounced_filter to helpers--><path d="M824.978,406.746 C829.309,404.329 833.514,401.67 837.332,398.78 C859.715,381.834 879.7,356.002 891.544,339.005 " fill="none" id="_renounced_filter-&gt;helpers" style="stroke: #000000; stroke-width: 0.5;"/><polygon fill="#000000" points="894.664,334.46,886.2732,339.6171,891.8347,338.5825,892.8692,344.1439,894.664,334.46" style="stroke: #000000; stroke-width: 0.5;"/><!--MD5=[5966deb05a9f876144a3efef9767cf34]
link _snipe_list_cache to helpers--><path d="M823.531,236.852 C828.364,239.55 833.083,242.534 837.332,245.78 C859.348,262.596 879.29,287.852 891.237,304.57 " fill="none" id="_snipe_list_cache-&gt;helpers" style="stroke: #000000; stroke-width: 0.5;"/><polygon fill="#000000" points="894.39,309.045,892.4779,299.3835,891.5109,304.9571,885.9373,303.9901,894.39,309.045" style="stroke: #000000; stroke-width: 0.5;"/><!--MD5=[1c29b4323d88b29d51654ad3d5d5de39]
link transactions to _default_transaction_executor--><path d="M241.333,130.237 C251.678,131.159 262.906,132.159 274.281,133.173 " fill="none" id="transactions-&gt;_default_transaction_executor" style="stroke: #000000; stroke-width: 0.5;"/><polygon fill="#000000" points="279.515,133.64,270.906,128.8561,274.5348,133.1957,270.1952,136.8244,279.515,133.64" style="stroke: #000000; stroke-width: 0.5;"/><!--MD5=[1ca953a3bff978d2f3baef0a6d16e3db]
link transactions to _transaction_executor_interface--><path d="M238.69,119.807 C251.537,118.331 265.455,116.865 278.332,115.78 C350.332,109.714 431.74,105.398 493.961,102.633 " fill="none" id="transactions-&gt;_transaction_executor_interface" style="stroke: #000000; stroke-width: 0.5;"/><polygon fill="#000000" points="499.163,102.403,489.9947,98.8054,494.1679,102.6244,490.3489,106.7976,499.163,102.403" style="stroke: #000000; stroke-width: 0.5;"/><!--MD5=[32775293d366a8b3f5deea8e29513c3f]
link _warp_transaction_executor to helpers--><path d="M457.893,182.884 C574.338,171.049 775.953,157.192 837.332,194.78 C876.569,218.807 893.331,274.673 899.59,303.637 " fill="none" id="_warp_transaction_executor-&gt;helpers" style="stroke: #000000; stroke-width: 0.5;"/><polygon fill="#000000" points="900.64,308.719,902.7364,299.0958,899.6284,303.8224,894.9018,300.7144,900.64,308.719" style="stroke: #000000; stroke-width: 0.5;"/><!--MD5=[00379ba439727b295561b4fee1cd3e6e]
link _warp_transaction_executor to _transaction_executor_interface--><path d="M442.586,175.75 C450.343,173.319 458.062,170.656 465.332,167.78 C499.817,154.135 536.959,133.696 562.584,118.602 " fill="none" id="_warp_transaction_executor-&gt;_transaction_executor_interface" style="stroke: #000000; stroke-width: 0.5;"/><polygon fill="#000000" points="566.913,116.038,557.1309,117.1829,562.611,118.5861,561.2078,124.0661,566.913,116.038" style="stroke: #000000; stroke-width: 0.5;"/><script type="text/plantuml"><![CDATA[MD5=[c098c4e0abaa3b31ad8e869be00f5982]
@startuml

scale max 1920 width
left to right direction

skinparam nodesep 17
skinparam ranksep 34
skinparam monochrome true
skinparam shadowing false
skinparam defaultFontName Tahoma
skinparam defaultFontSize 12
skinparam roundCorner 6
skinparam dpi 150
skinparam arrowColor black
skinparam arrowThickness 0.5
skinparam packageTitleAlignment left

skinparam usecase {
  borderThickness 0.5
}

skinparam rectangle {
  borderThickness 0.5
}

skinparam component {
  borderThickness 1
}


rectangle "bot" as _bot
rectangle "burn.filter" as _burn_filter
(cache)
rectangle "constants" as _constants
rectangle "default-transaction-executor" as _default_transaction_executor
(filters)
(helpers)
(<b>index</b>)
rectangle "jito-rpc-transaction-executor" as _jito_rpc_transaction_executor
(liquidity)
(listeners)
rectangle "listeners" as _listeners
(logger)
rectangle "market" as _market
rectangle "market.cache" as _market_cache
rectangle "mutable.filter" as _mutable_filter
rectangle "pool-filters" as _pool_filters
rectangle "pool-size.filter" as _pool_size_filter
rectangle "pool.cache" as _pool_cache
(promises)
rectangle "renounced.filter" as _renounced_filter
rectangle "snipe-list.cache" as _snipe_list_cache
(token)
rectangle "transaction-executor.interface" as _transaction_executor_interface
(transactions)
(wallet)
rectangle "warp-transaction-executor" as _warp_transaction_executor


_bot --> (cache)
_bot --> (filters)
_bot --> (helpers)
_bot --> _jito_rpc_transaction_executor
_bot --> (transactions)
_bot --> _warp_transaction_executor
_burn_filter --> (helpers)
_burn_filter --> _pool_filters
(cache) --> _market_cache
(cache) --> _pool_cache
(cache) --> _snipe_list_cache
_constants --> (logger)
_default_transaction_executor --> (helpers)
_default_transaction_executor --> _transaction_executor_interface
(filters) --> _burn_filter
(filters) --> _mutable_filter
(filters) --> _pool_filters
(filters) --> _pool_size_filter
(filters) --> _renounced_filter
(helpers) --> _constants
(helpers) --> (liquidity)
(helpers) --> (logger)
(helpers) --> _market
(helpers) --> (promises)
(helpers) --> (token)
(helpers) --> (wallet)
(<b>index</b>) -[thickness=1]> _bot
(<b>index</b>) -[thickness=1]> (cache)
(<b>index</b>) -[thickness=1]> (helpers)
(<b>index</b>) -[thickness=1]> _jito_rpc_transaction_executor
(<b>index</b>) -[thickness=1]> (listeners)
(<b>index</b>) -[thickness=1]> (transactions)
(<b>index</b>) -[thickness=1]> _warp_transaction_executor
_jito_rpc_transaction_executor --> (helpers)
_jito_rpc_transaction_executor --> _transaction_executor_interface
(liquidity) --> _market
(listeners) --> _listeners
_market_cache --> (helpers)
_mutable_filter --> (helpers)
_mutable_filter --> _pool_filters
_pool_filters --> _burn_filter
_pool_filters --> (helpers)
_pool_filters --> _mutable_filter
_pool_filters --> _pool_size_filter
_pool_filters --> _renounced_filter
_pool_size_filter --> (helpers)
_pool_size_filter --> _pool_filters
_pool_cache --> (helpers)
_renounced_filter --> (helpers)
_renounced_filter --> _pool_filters
_snipe_list_cache --> (helpers)
(transactions) --> _default_transaction_executor
(transactions) --> _transaction_executor_interface
_warp_transaction_executor --> (helpers)
_warp_transaction_executor --> _transaction_executor_interface

@enduml


' View and edit on https://arkit.pro
]]></script></g></svg>